<mxfile host="Electron" modified="2025-07-16T07:55:54.039Z" agent="Mozilla/5.0 (Windows NT 10.0; Win64; x64) AppleWebKit/537.36 (KHTML, like Gecko) draw.io/24.2.5 Chrome/120.0.6099.109 Electron/28.1.0 Safari/537.36" etag="v_NJDJohdGVEQWaFTEDx" version="24.2.5" type="device">
  <diagram id="C5RBs43oDa-KdzZeNtuy" name="Page-1">
    <mxGraphModel dx="1904" dy="1801" grid="1" gridSize="10" guides="1" tooltips="1" connect="1" arrows="1" fold="1" page="1" pageScale="1" pageWidth="827" pageHeight="1169" math="0" shadow="0">
      <root>
        <mxCell id="WIyWlLk6GJQsqaUBKTNV-0" />
        <mxCell id="WIyWlLk6GJQsqaUBKTNV-1" parent="WIyWlLk6GJQsqaUBKTNV-0" />
        <mxCell id="2enma9N4wk89pyidMat7-0" value="&lt;p style=&quot;margin:0px;margin-top:4px;text-align:center;&quot;&gt;&lt;b&gt;&lt;font color=&quot;#ff0000&quot;&gt;Class DTensor(torch.Tensor)&lt;/font&gt;&lt;/b&gt;&lt;/p&gt;&lt;hr size=&quot;1&quot;&gt;&lt;p style=&quot;margin:0px;margin-left:4px;&quot;&gt;&lt;font color=&quot;#0000ff&quot;&gt;+ _slots__ = [&quot;_local_tensor&quot;, &quot;_spec&quot;]&lt;/font&gt;&lt;/p&gt;&lt;p style=&quot;margin:0px;margin-left:4px;&quot;&gt;&lt;font color=&quot;#0000ff&quot;&gt;+ self._local_tensor&lt;/font&gt;&lt;/p&gt;&lt;p style=&quot;margin:0px;margin-left:4px;&quot;&gt;&lt;font color=&quot;#0000ff&quot;&gt;+ self._spec # 原始tensor的meta信息&lt;/font&gt;&lt;/p&gt;&lt;font color=&quot;#0000ff&quot;&gt;&amp;nbsp;+ _op_dispatcher = op_dispatch.OpDispatcher&lt;/font&gt;&lt;br&gt;&lt;hr size=&quot;1&quot;&gt;&lt;p style=&quot;margin:0px;margin-left:4px;&quot;&gt;+ static&amp;nbsp; __tensor__flatten__(self)&lt;/p&gt;&lt;p style=&quot;margin:0px;margin-left:4px;&quot;&gt;+ static __torch_unflatten__()&lt;/p&gt;&lt;p style=&quot;margin:0px;margin-left:4px;&quot;&gt;+ &lt;font color=&quot;#ff0000&quot;&gt;__torch_dispatch_&lt;/font&gt;(cls, func, types, args(), kwargs)&lt;/p&gt;&lt;p style=&quot;margin:0px;margin-left:4px;&quot;&gt;+ from_local(local_tensor, device_mesh, placements)&lt;/p&gt;&lt;p style=&quot;margin:0px;margin-left:4px;&quot;&gt;+ to_local(self, grad_placements)&lt;/p&gt;&lt;p style=&quot;margin:0px;margin-left:4px;&quot;&gt;+ &lt;font color=&quot;#ff0000&quot;&gt;redistribute&lt;/font&gt;(self, device_mesh, placements,*,async_op)&lt;/p&gt;&lt;p style=&quot;margin:0px;margin-left:4px;&quot;&gt;+ full_tensor()&lt;/p&gt;&lt;p style=&quot;margin:0px;margin-left:4px;&quot;&gt;&lt;span style=&quot;background-color: initial;&quot;&gt;+ device_mesh(self) &lt;font color=&quot;#0000ff&quot;&gt;# property&lt;/font&gt;&amp;nbsp;&lt;/span&gt;&lt;br&gt;&lt;/p&gt;&lt;p style=&quot;margin:0px;margin-left:4px;&quot;&gt;&lt;span style=&quot;background-color: initial;&quot;&gt;+ placement(self) &lt;font color=&quot;#0000ff&quot;&gt;# property&lt;/font&gt;&lt;/span&gt;&lt;br&gt;&lt;/p&gt;&lt;p style=&quot;margin:0px;margin-left:4px;&quot;&gt;+ __create_write_items__(self, )&lt;/p&gt;&lt;p style=&quot;margin:0px;margin-left:4px;&quot;&gt;+ __create_chunk_list__(self)&lt;/p&gt;&lt;p style=&quot;margin:0px;margin-left:4px;&quot;&gt;+ __get_tensor_shard__(self, index)&lt;/p&gt;&lt;p style=&quot;margin:0px;margin-left:4px;&quot;&gt;&lt;/p&gt;" style="verticalAlign=top;align=left;overflow=fill;html=1;whiteSpace=wrap;" parent="WIyWlLk6GJQsqaUBKTNV-1" vertex="1">
          <mxGeometry x="120" y="155" width="320" height="280" as="geometry" />
        </mxCell>
        <mxCell id="2enma9N4wk89pyidMat7-1" value="&lt;p style=&quot;margin:0px;margin-top:4px;text-align:center;&quot;&gt;&lt;b&gt;Class &lt;font color=&quot;#ff0000&quot;&gt;DTensorSpec&lt;/font&gt;&lt;/b&gt;&lt;/p&gt;&lt;hr size=&quot;1&quot;&gt;&lt;p style=&quot;margin:0px;margin-left:4px;&quot;&gt;&lt;/p&gt;&amp;nbsp;+ mesh : &lt;font color=&quot;#0000ff&quot;&gt;DeviceMesh&lt;/font&gt;&lt;br&gt;&amp;nbsp;+ placements : Tuple[&lt;font color=&quot;#0000ff&quot;&gt;Placement&lt;/font&gt;]&lt;br&gt;&amp;nbsp;+ tensor_meta : &lt;font color=&quot;#0000ff&quot;&gt;TensorMeta&lt;/font&gt;&lt;br&gt;&lt;br&gt;&lt;p style=&quot;margin:0px;margin-left:4px;&quot;&gt;&lt;/p&gt;&lt;p style=&quot;margin:0px;margin-left:4px;&quot;&gt;&lt;/p&gt;" style="verticalAlign=top;align=left;overflow=fill;html=1;whiteSpace=wrap;" parent="WIyWlLk6GJQsqaUBKTNV-1" vertex="1">
          <mxGeometry x="100" width="200" height="80" as="geometry" />
        </mxCell>
        <mxCell id="2enma9N4wk89pyidMat7-2" value="1" style="endArrow=open;html=1;endSize=12;startArrow=diamondThin;startSize=14;startFill=0;edgeStyle=orthogonalEdgeStyle;align=left;verticalAlign=bottom;rounded=0;entryX=0.5;entryY=1;entryDx=0;entryDy=0;exitX=0.25;exitY=0;exitDx=0;exitDy=0;" parent="WIyWlLk6GJQsqaUBKTNV-1" source="2enma9N4wk89pyidMat7-0" target="2enma9N4wk89pyidMat7-1" edge="1">
          <mxGeometry x="-0.8667" y="20" relative="1" as="geometry">
            <mxPoint x="470" y="100" as="sourcePoint" />
            <mxPoint x="630" y="100" as="targetPoint" />
            <mxPoint as="offset" />
          </mxGeometry>
        </mxCell>
        <mxCell id="2enma9N4wk89pyidMat7-3" value="&lt;p style=&quot;margin:0px;margin-top:4px;text-align:center;&quot;&gt;&lt;b&gt;Tensor&lt;/b&gt;&lt;/p&gt;&lt;hr size=&quot;1&quot;&gt;&lt;p style=&quot;margin:0px;margin-left:4px;&quot;&gt;&lt;/p&gt;&amp;nbsp;+ _local_tensor&lt;br&gt;&lt;p style=&quot;margin:0px;margin-left:4px;&quot;&gt;&lt;/p&gt;&lt;p style=&quot;margin:0px;margin-left:4px;&quot;&gt;&lt;/p&gt;" style="verticalAlign=top;align=left;overflow=fill;html=1;whiteSpace=wrap;" parent="WIyWlLk6GJQsqaUBKTNV-1" vertex="1">
          <mxGeometry x="580" y="195" width="110" height="60" as="geometry" />
        </mxCell>
        <mxCell id="2enma9N4wk89pyidMat7-4" value="1" style="endArrow=open;html=1;endSize=12;startArrow=diamondThin;startSize=14;startFill=0;edgeStyle=orthogonalEdgeStyle;align=left;verticalAlign=bottom;rounded=0;exitX=1;exitY=0.25;exitDx=0;exitDy=0;entryX=0;entryY=0.5;entryDx=0;entryDy=0;" parent="WIyWlLk6GJQsqaUBKTNV-1" source="2enma9N4wk89pyidMat7-0" target="2enma9N4wk89pyidMat7-3" edge="1">
          <mxGeometry x="-0.7143" y="15" relative="1" as="geometry">
            <mxPoint x="390" y="110" as="sourcePoint" />
            <mxPoint x="550" y="110" as="targetPoint" />
            <mxPoint as="offset" />
          </mxGeometry>
        </mxCell>
        <mxCell id="2enma9N4wk89pyidMat7-5" value="&lt;p style=&quot;margin:0px;margin-top:4px;text-align:center;&quot;&gt;&lt;font color=&quot;#ff3333&quot;&gt;&lt;b&gt;Class &lt;/b&gt;&lt;b style=&quot;background-color: initial;&quot;&gt;DeviceMesh&lt;/b&gt;&lt;/font&gt;&lt;/p&gt;&lt;p style=&quot;margin:0px;margin-top:4px;text-align:center;&quot;&gt;&lt;/p&gt;&lt;hr size=&quot;1&quot;&gt;&lt;p style=&quot;margin:0px;margin-left:4px;&quot;&gt;+ device_type : str&lt;/p&gt;&lt;p style=&quot;margin:0px;margin-left:4px;&quot;&gt;+ mesh : torch.Tensor&lt;/p&gt;&lt;p style=&quot;margin:0px;margin-left:4px;&quot;&gt;&lt;/p&gt;&amp;nbsp;+ mesh_dim_names : optional[Tuple[str, ...]]&lt;br&gt;&amp;nbsp;+ 遵循单程序多数据流模型(SPMD)&lt;hr size=&quot;1&quot;&gt;&lt;p style=&quot;margin:0px;margin-left:4px;&quot;&gt;+ _get_or_create_default_group(self)&lt;/p&gt;&lt;p style=&quot;margin:0px;margin-left:4px;&quot;&gt;+ _init_process_groups(self)&lt;/p&gt;&lt;p style=&quot;margin:0px;margin-left:4px;&quot;&gt;&lt;font color=&quot;#ff0000&quot;&gt;# 返回当前rank对应的submesh&lt;/font&gt;&lt;/p&gt;&lt;p style=&quot;margin:0px;margin-left:4px;&quot;&gt;+ __getitem__(self, mesh_dim_names)&lt;/p&gt;&lt;p style=&quot;margin:0px;margin-left:4px;&quot;&gt;+ get_group(self,&amp;nbsp; mesh_dim) --&amp;gt; ProcessGroup&lt;/p&gt;&lt;p style=&quot;margin:0px;margin-left:4px;&quot;&gt;+ get_all_groups(self) --&amp;gt; List[ProcessGroup]&lt;/p&gt;&lt;p style=&quot;margin:0px;margin-left:4px;&quot;&gt;# 从[ProcessGroup]获取device mesh&lt;/p&gt;&lt;p style=&quot;margin:0px;margin-left:4px;&quot;&gt;+ from_group(group, device_type, mesh,*,mesh_dim_names)&lt;/p&gt;&lt;p style=&quot;margin:0px;margin-left:4px;&quot;&gt;+ size(mesh_dim)&lt;/p&gt;&lt;p style=&quot;margin:0px;margin-left:4px;&quot;&gt;+ @property ndim, shape&lt;/p&gt;&lt;p style=&quot;margin:0px;margin-left:4px;&quot;&gt;+ get_rank() --&amp;gt; 返回指定进程组的global rank&lt;/p&gt;&lt;p style=&quot;margin:0px;margin-left:4px;&quot;&gt;+ get_local_rank(self, mesh_dim)&lt;/p&gt;&lt;p style=&quot;margin:0px;margin-left:4px;&quot;&gt;+ get_coordinate(self)&lt;/p&gt;&lt;p style=&quot;margin:0px;margin-left:4px;&quot;&gt;+ _flatten() --&amp;gt; 返回1D DeviceMesh&lt;/p&gt;&lt;p style=&quot;margin:0px;margin-left:4px;&quot;&gt;&lt;/p&gt;" style="verticalAlign=top;align=left;overflow=fill;html=1;whiteSpace=wrap;" parent="WIyWlLk6GJQsqaUBKTNV-1" vertex="1">
          <mxGeometry x="-393" y="-37" width="350" height="310" as="geometry" />
        </mxCell>
        <mxCell id="2enma9N4wk89pyidMat7-6" value="1" style="endArrow=open;html=1;endSize=12;startArrow=diamondThin;startSize=14;startFill=0;edgeStyle=orthogonalEdgeStyle;align=left;verticalAlign=bottom;rounded=0;entryX=1;entryY=0.25;entryDx=0;entryDy=0;exitX=0;exitY=0.5;exitDx=0;exitDy=0;" parent="WIyWlLk6GJQsqaUBKTNV-1" source="2enma9N4wk89pyidMat7-1" target="2enma9N4wk89pyidMat7-5" edge="1">
          <mxGeometry x="-0.7213" y="20" relative="1" as="geometry">
            <mxPoint x="210" y="160" as="sourcePoint" />
            <mxPoint x="130" y="90" as="targetPoint" />
            <mxPoint as="offset" />
          </mxGeometry>
        </mxCell>
        <mxCell id="2enma9N4wk89pyidMat7-7" value="&lt;p style=&quot;margin:0px;margin-top:4px;text-align:center;&quot;&gt;&lt;b&gt;Class &lt;font color=&quot;#ff0000&quot;&gt;Placement&lt;/font&gt;&lt;/b&gt;&lt;/p&gt;&lt;hr size=&quot;1&quot;&gt;&lt;p style=&quot;margin:0px;margin-left:4px;&quot;&gt;+ is_shard(self)&lt;/p&gt;&lt;p style=&quot;margin:0px;margin-left:4px;&quot;&gt;+ is_replicate(self)&lt;/p&gt;&lt;p style=&quot;margin:0px;margin-left:4px;&quot;&gt;+ is_partial(self)&lt;/p&gt;&lt;p style=&quot;margin:0px;margin-left:4px;&quot;&gt;&lt;/p&gt;" style="verticalAlign=top;align=left;overflow=fill;html=1;whiteSpace=wrap;" parent="WIyWlLk6GJQsqaUBKTNV-1" vertex="1">
          <mxGeometry x="135" y="-187.62" width="130" height="80" as="geometry" />
        </mxCell>
        <mxCell id="2enma9N4wk89pyidMat7-8" value="1" style="endArrow=open;html=1;endSize=12;startArrow=diamondThin;startSize=14;startFill=0;edgeStyle=orthogonalEdgeStyle;align=left;verticalAlign=bottom;rounded=0;entryX=0.5;entryY=1;entryDx=0;entryDy=0;exitX=0.5;exitY=0;exitDx=0;exitDy=0;" parent="WIyWlLk6GJQsqaUBKTNV-1" source="2enma9N4wk89pyidMat7-1" target="2enma9N4wk89pyidMat7-7" edge="1">
          <mxGeometry x="-0.9452" y="20" relative="1" as="geometry">
            <mxPoint x="50" y="10" as="sourcePoint" />
            <mxPoint x="-195" y="-110" as="targetPoint" />
            <mxPoint as="offset" />
          </mxGeometry>
        </mxCell>
        <mxCell id="2enma9N4wk89pyidMat7-9" value="&lt;p style=&quot;margin: 4px 0px 0px;&quot;&gt;&lt;b&gt;&amp;nbsp; &lt;/b&gt;&lt;b style=&quot;text-align: center; background-color: initial;&quot;&gt;Class &lt;font color=&quot;#ff00ff&quot;&gt;shard&lt;/font&gt;(placement)&lt;/b&gt;&lt;/p&gt;&lt;p style=&quot;margin:0px;margin-top:4px;text-align:center;&quot;&gt;&lt;/p&gt;&lt;hr size=&quot;1&quot;&gt;&lt;p style=&quot;margin:0px;margin-left:4px;&quot;&gt;+ dim&lt;/p&gt;&lt;hr size=&quot;1&quot;&gt;&lt;p style=&quot;margin:0px;margin-left:4px;&quot;&gt;+ _split_tensor()&lt;/p&gt;&lt;p style=&quot;margin:0px;margin-left:4px;&quot;&gt;+ _local_shard_size_on_dim&lt;/p&gt;&lt;p style=&quot;margin:0px;margin-left:4px;&quot;&gt;# shard and scatter on one dim&lt;/p&gt;&lt;p style=&quot;margin:0px;margin-left:4px;&quot;&gt;+ _shard_tensor&amp;nbsp;&lt;/p&gt;&lt;p style=&quot;margin:0px;margin-left:4px;&quot;&gt;+ _reduce_shard_tensor&lt;/p&gt;&lt;p style=&quot;margin:0px;margin-left:4px;&quot;&gt;+ _to_replicate_tensor&lt;/p&gt;&lt;p style=&quot;margin:0px;margin-left:4px;&quot;&gt;+ _replicate_to_shard()&lt;/p&gt;&lt;p style=&quot;margin:0px;margin-left:4px;&quot;&gt;# performs an all-to-all&lt;/p&gt;&lt;p style=&quot;margin:0px;margin-left:4px;&quot;&gt;+ _to_new_shard_dim()&amp;nbsp;&lt;/p&gt;&lt;p style=&quot;margin:0px;margin-left:4px;&quot;&gt;&lt;/p&gt;&lt;p style=&quot;margin:0px;margin-left:4px;&quot;&gt;&lt;/p&gt;" style="verticalAlign=top;align=left;overflow=fill;html=1;whiteSpace=wrap;" parent="WIyWlLk6GJQsqaUBKTNV-1" vertex="1">
          <mxGeometry x="110" y="-480" width="180" height="200" as="geometry" />
        </mxCell>
        <mxCell id="2enma9N4wk89pyidMat7-10" value="Extends" style="endArrow=block;endSize=16;endFill=0;html=1;rounded=0;exitX=0.5;exitY=1;exitDx=0;exitDy=0;entryX=0.5;entryY=0;entryDx=0;entryDy=0;" parent="WIyWlLk6GJQsqaUBKTNV-1" source="2enma9N4wk89pyidMat7-9" target="2enma9N4wk89pyidMat7-7" edge="1">
          <mxGeometry width="160" relative="1" as="geometry">
            <mxPoint x="110" y="-280" as="sourcePoint" />
            <mxPoint x="270" y="-280" as="targetPoint" />
          </mxGeometry>
        </mxCell>
        <mxCell id="2enma9N4wk89pyidMat7-11" value="&lt;p style=&quot;margin: 4px 0px 0px;&quot;&gt;&lt;b&gt;&amp;nbsp; &lt;/b&gt;&lt;b style=&quot;text-align: center; background-color: initial;&quot;&gt;Class &lt;font color=&quot;#ff00ff&quot;&gt;_StridedShard&lt;/font&gt;(shard)&lt;/b&gt;&lt;/p&gt;&lt;p style=&quot;margin: 4px 0px 0px;&quot;&gt;&lt;font color=&quot;#ff0000&quot;&gt;# 用于 2D FSDP2+TP&lt;/font&gt;&lt;/p&gt;&lt;p style=&quot;margin: 4px 0px 0px;&quot;&gt;&lt;font color=&quot;#ff0000&quot;&gt;# 先按TP shard 再 FSDP shard&lt;/font&gt;&lt;/p&gt;&lt;p style=&quot;margin: 4px 0px 0px;&quot;&gt;&lt;/p&gt;&lt;p style=&quot;margin:0px;margin-top:4px;text-align:center;&quot;&gt;&lt;/p&gt;&lt;hr size=&quot;1&quot;&gt;&lt;p style=&quot;margin:0px;margin-left:4px;&quot;&gt;&lt;/p&gt;&lt;p style=&quot;margin:0px;margin-left:4px;&quot;&gt;+ split_factor&lt;/p&gt;&lt;hr size=&quot;1&quot;&gt;&lt;p style=&quot;margin:0px;margin-left:4px;&quot;&gt;+ _split_tensor()&lt;/p&gt;&lt;p style=&quot;margin:0px;margin-left:4px;&quot;&gt;&lt;/p&gt;&lt;p style=&quot;margin:0px;margin-left:4px;&quot;&gt;+ _to_replicate_tensor&lt;/p&gt;&lt;p style=&quot;margin:0px;margin-left:4px;&quot;&gt;&lt;/p&gt;&lt;p style=&quot;margin:0px;margin-left:4px;&quot;&gt;&lt;/p&gt;&lt;p style=&quot;margin:0px;margin-left:4px;&quot;&gt;&lt;/p&gt;" style="verticalAlign=top;align=left;overflow=fill;html=1;whiteSpace=wrap;" parent="WIyWlLk6GJQsqaUBKTNV-1" vertex="1">
          <mxGeometry x="110" y="-680" width="180" height="130" as="geometry" />
        </mxCell>
        <mxCell id="2enma9N4wk89pyidMat7-12" value="Extends" style="endArrow=block;endSize=16;endFill=0;html=1;rounded=0;exitX=0.5;exitY=1;exitDx=0;exitDy=0;entryX=0.5;entryY=0;entryDx=0;entryDy=0;" parent="WIyWlLk6GJQsqaUBKTNV-1" source="2enma9N4wk89pyidMat7-11" target="2enma9N4wk89pyidMat7-9" edge="1">
          <mxGeometry width="160" relative="1" as="geometry">
            <mxPoint x="100" y="-580" as="sourcePoint" />
            <mxPoint x="260" y="-580" as="targetPoint" />
          </mxGeometry>
        </mxCell>
        <mxCell id="2enma9N4wk89pyidMat7-13" value="&lt;p style=&quot;margin: 4px 0px 0px;&quot;&gt;&lt;b&gt;&amp;nbsp; &lt;/b&gt;&lt;b style=&quot;text-align: center; background-color: initial;&quot;&gt;Class &lt;font color=&quot;#ff00ff&quot;&gt;Replicate&lt;/font&gt;(Placement)&lt;br&gt;&lt;/b&gt;&lt;/p&gt;&lt;p style=&quot;margin: 4px 0px 0px;&quot;&gt;&lt;/p&gt;&lt;p style=&quot;margin:0px;margin-top:4px;text-align:center;&quot;&gt;&lt;/p&gt;&lt;hr size=&quot;1&quot;&gt;&lt;p style=&quot;margin:0px;margin-left:4px;&quot;&gt;&lt;/p&gt;&lt;p style=&quot;margin:0px;margin-left:4px;&quot;&gt;+ _replicate_tensor(self,&lt;/p&gt;&lt;p style=&quot;margin:0px;margin-left:4px;&quot;&gt;&amp;nbsp; &amp;nbsp; tensor, DeviceMesh, mesh_dim)&lt;/p&gt;&lt;p style=&quot;margin:0px;margin-left:4px;&quot;&gt;&lt;/p&gt;&lt;p style=&quot;margin:0px;margin-left:4px;&quot;&gt;&lt;/p&gt;&lt;p style=&quot;margin:0px;margin-left:4px;&quot;&gt;&lt;/p&gt;&lt;p style=&quot;margin:0px;margin-left:4px;&quot;&gt;&lt;/p&gt;" style="verticalAlign=top;align=left;overflow=fill;html=1;whiteSpace=wrap;" parent="WIyWlLk6GJQsqaUBKTNV-1" vertex="1">
          <mxGeometry x="-243" y="-182.62" width="200" height="70" as="geometry" />
        </mxCell>
        <mxCell id="2enma9N4wk89pyidMat7-14" value="Extends" style="endArrow=block;endSize=16;endFill=0;html=1;rounded=0;exitX=1;exitY=0.5;exitDx=0;exitDy=0;entryX=0;entryY=0.5;entryDx=0;entryDy=0;" parent="WIyWlLk6GJQsqaUBKTNV-1" source="2enma9N4wk89pyidMat7-13" target="2enma9N4wk89pyidMat7-7" edge="1">
          <mxGeometry width="160" relative="1" as="geometry">
            <mxPoint x="96" y="-302" as="sourcePoint" />
            <mxPoint x="98" y="-192" as="targetPoint" />
          </mxGeometry>
        </mxCell>
        <mxCell id="2enma9N4wk89pyidMat7-15" value="&lt;p style=&quot;margin: 4px 0px 0px;&quot;&gt;&lt;b&gt;&amp;nbsp; &lt;/b&gt;&lt;b style=&quot;text-align: center; background-color: initial;&quot;&gt;Class &lt;font color=&quot;#ff00ff&quot;&gt;Partial&lt;/font&gt;(Placement)&lt;br&gt;&lt;/b&gt;&lt;/p&gt;&lt;p style=&quot;margin: 4px 0px 0px;&quot;&gt;&lt;/p&gt;&lt;p style=&quot;margin:0px;margin-top:4px;text-align:center;&quot;&gt;&lt;/p&gt;&lt;hr size=&quot;1&quot;&gt;&lt;p style=&quot;margin:0px;margin-left:4px;&quot;&gt;&lt;/p&gt;&lt;p style=&quot;margin:0px;margin-left:4px;&quot;&gt;+ reduce_op : str = &quot;sum&quot;&lt;/p&gt;&lt;hr size=&quot;1&quot;&gt;&lt;p style=&quot;margin:0px;margin-left:4px;&quot;&gt;+ _reduce_value()&lt;/p&gt;&lt;p style=&quot;margin:0px;margin-left:4px;&quot;&gt;+ _reduce_shard_value()&lt;/p&gt;&lt;p style=&quot;margin:0px;margin-left:4px;&quot;&gt;+ _partition_value&lt;/p&gt;&lt;p style=&quot;margin:0px;margin-left:4px;&quot;&gt;&lt;/p&gt;&lt;p style=&quot;margin:0px;margin-left:4px;&quot;&gt;&lt;/p&gt;&lt;p style=&quot;margin:0px;margin-left:4px;&quot;&gt;&lt;/p&gt;" style="verticalAlign=top;align=left;overflow=fill;html=1;whiteSpace=wrap;" parent="WIyWlLk6GJQsqaUBKTNV-1" vertex="1">
          <mxGeometry x="430" y="-201.99" width="150" height="108.75" as="geometry" />
        </mxCell>
        <mxCell id="2enma9N4wk89pyidMat7-16" value="Extends" style="endArrow=block;endSize=16;endFill=0;html=1;rounded=0;exitX=0;exitY=0.5;exitDx=0;exitDy=0;entryX=1;entryY=0.5;entryDx=0;entryDy=0;" parent="WIyWlLk6GJQsqaUBKTNV-1" source="2enma9N4wk89pyidMat7-15" target="2enma9N4wk89pyidMat7-7" edge="1">
          <mxGeometry width="160" relative="1" as="geometry">
            <mxPoint x="295" y="-302" as="sourcePoint" />
            <mxPoint x="195" y="-192" as="targetPoint" />
          </mxGeometry>
        </mxCell>
        <mxCell id="2enma9N4wk89pyidMat7-17" value="&lt;p style=&quot;margin:0px;margin-top:4px;text-align:center;&quot;&gt;&lt;b&gt;Class &lt;font color=&quot;#ff0000&quot;&gt;TensorMeta&lt;/font&gt;&lt;/b&gt;&lt;/p&gt;&lt;hr size=&quot;1&quot;&gt;&lt;p style=&quot;margin:0px;margin-left:4px;&quot;&gt;&lt;/p&gt;&amp;nbsp;+ shape : torch.Size&lt;br&gt;&amp;nbsp;+ stride : Tuple[int, ...]&lt;br&gt;&amp;nbsp;+ dtype : torch.dtype&lt;br&gt;&lt;br&gt;&lt;p style=&quot;margin:0px;margin-left:4px;&quot;&gt;&lt;/p&gt;&lt;p style=&quot;margin:0px;margin-left:4px;&quot;&gt;&lt;/p&gt;" style="verticalAlign=top;align=left;overflow=fill;html=1;whiteSpace=wrap;" parent="WIyWlLk6GJQsqaUBKTNV-1" vertex="1">
          <mxGeometry x="380" width="140" height="80" as="geometry" />
        </mxCell>
        <mxCell id="2enma9N4wk89pyidMat7-18" value="1" style="endArrow=open;html=1;endSize=12;startArrow=diamondThin;startSize=14;startFill=0;edgeStyle=orthogonalEdgeStyle;align=left;verticalAlign=bottom;rounded=0;entryX=0;entryY=0.5;entryDx=0;entryDy=0;" parent="WIyWlLk6GJQsqaUBKTNV-1" target="2enma9N4wk89pyidMat7-17" edge="1">
          <mxGeometry x="-0.7213" y="20" relative="1" as="geometry">
            <mxPoint x="300" y="40" as="sourcePoint" />
            <mxPoint x="-33" y="51" as="targetPoint" />
            <mxPoint as="offset" />
          </mxGeometry>
        </mxCell>
      </root>
    </mxGraphModel>
  </diagram>
</mxfile>
